<?xml version="1.0" encoding="utf-8"?>
<!-- Generator: Adobe Illustrator 21.1.0, SVG Export Plug-In . SVG Version: 6.00 Build 0)  -->
<svg version="1.1" id="Laag_1" xmlns="http://www.w3.org/2000/svg" xmlns:xlink="http://www.w3.org/1999/xlink" x="0px" y="0px"
	 viewBox="0 0 116.1 92.3" style="enable-background:new 0 0 116.1 92.3;" xml:space="preserve">
<style type="text/css">
	.st0{fill:none;stroke:#771B5D;stroke-width:2;stroke-miterlimit:10;}
	.st1{fill:none;stroke:#771B5D;stroke-width:3.1419;stroke-miterlimit:10;}
	.st2{fill:#771B5D;stroke:#771B5D;stroke-width:1.4018;stroke-miterlimit:10;}
	.st3{fill:#771B5D;stroke:#771B5D;stroke-width:2;stroke-miterlimit:10;}
	.st4{fill:#FFFFFE;stroke:#771B5D;stroke-width:5;stroke-miterlimit:10;}
</style>
<path class="st0" d="M92.6,87.9H23.7c-7.9,0-14.3-6.4-14.3-14.3V18.7c0-7.9,6.4-14.3,14.3-14.3h68.9c7.9,0,14.3,6.4,14.3,14.3v54.9
	C106.9,81.5,100.4,87.9,92.6,87.9z"/>
<path class="st1" d="M60.5,46.5h-4.8c-5.9,0-10.7-4.8-10.7-10.7v-1.9c0-5.9,4.8-10.7,10.7-10.7h4.8c5.9,0,10.7,4.8,10.7,10.7v1.9
	C71.3,41.7,66.5,46.5,60.5,46.5z"/>
<path class="st2" d="M75.6,65.2h-35c-1.9,0-3.4-1.5-3.4-3.4V42.2c0-1.9,1.5-3.4,3.4-3.4h35c1.9,0,3.4,1.5,3.4,3.4v19.6
	C79,63.7,77.5,65.2,75.6,65.2z"/>
<path class="st3" d="M176.9,37.3l0.2-0.2c0.7-0.7,1.8-0.8,2.6-0.2l23.7,21.2c0.7,0.7,0.8,1.8,0.2,2.6l-0.2,0.2
	c-0.7,0.7-1.8,0.8-2.6,0.2l-23.7-21.2C176.2,39.3,176.1,38.1,176.9,37.3z"/>
<ellipse class="st4" cx="180.7" cy="40.6" rx="13.6" ry="12.8"/>
<path class="st0" d="M218.7,87.9h-68.9c-7.9,0-14.3-6.4-14.3-14.3V18.7c0-7.9,6.4-14.3,14.3-14.3h68.9c7.9,0,14.3,6.4,14.3,14.3
	v54.9C233.1,81.5,226.6,87.9,218.7,87.9z"/>
</svg>
