<?xml version="1.0" encoding="utf-8"?>
<!-- Generator: Adobe Illustrator 21.1.0, SVG Export Plug-In . SVG Version: 6.00 Build 0)  -->
<svg version="1.1" id="Laag_1" xmlns="http://www.w3.org/2000/svg" xmlns:xlink="http://www.w3.org/1999/xlink" x="0px" y="0px"
	 viewBox="0 0 110 110" style="enable-background:new 0 0 110 110;" xml:space="preserve">
<style type="text/css">
	.st0{fill:#991782;}
</style>
<g>
	<path class="st0" d="M71.2,74.2c-1.9,0-3.3,1.4-3.3,3.7c0,2.2,1.3,3.7,3.2,3.7c1.8,0,3.3-1.3,3.3-3.6S73.1,74.2,71.2,74.2z"/>
	<path class="st0" d="M54.9,0.2C24.6,0.2,0,24.7,0,55.1C0,85.4,24.6,110,54.9,110c30.3,0,54.9-24.6,54.9-54.9
		C109.8,24.7,85.3,0.2,54.9,0.2z M24.2,56.4c0,0.2,0.4,0.3,0.5,0.3c0.2,0,0.8,0.1,0.8,0.1l12.6,0.5l-3,9.8c0,0,0,0,0,0L35,67.3
		c-0.2,0.5-0.7,0.9-1.3,0.9h-6.4c-0.6,0-1-0.3-1.2-0.8c0,0,0,0,0-0.1l0-0.1c0,0,0,0,0,0l-2.9-9.3l-3,9.3c-0.2,0.5-0.7,0.9-1.3,0.9
		h-6.3c-0.6,0-1.1-0.4-1.3-0.9l0-0.1L4.9,45.8c0-0.1-0.1-0.2-0.1-0.4c0-0.7,0.6-1.3,1.3-1.3h6.7c0.6,0,1.1,0.4,1.3,0.9
		c0,0,0,0.1,0,0.1l2.2,8.6l2.6-8.8c0.2-0.6,0.7-0.9,1.3-0.9h6c0.6,0,1,0.3,1.2,0.8l0.1,0.3l2.6,8.7l2.3-8.7c0,0,0-0.1,0-0.1
		c0.2-0.5,0.7-0.9,1.3-0.9h6.5c0.7,0,1.3,0.6,1.3,1.3c0,0.1,0,0.3,0,0.4c0,0,0,0,0,0.1l-2.9,9.6L25.5,56c0,0-0.6,0.1-0.8,0.1
		C24.6,56.1,24.2,56.3,24.2,56.4C24.2,56.4,24.2,56.4,24.2,56.4L24.2,56.4L24.2,56.4C24.2,56.4,24.2,56.4,24.2,56.4z M54.7,43.5
		c7.6,0,13,5.3,13.4,11.7c0,0,0,0,0,0.1l-9.7-0.4c-0.4-1.5-1.4-2.7-2.8-3c-0.1-0.7-0.4-4.6-0.5-4.9c-0.1-0.3-0.4-0.3-0.4-0.3h0h0
		c0,0-0.3,0-0.4,0.3c-0.1,0.3-0.5,4.2-0.5,4.9c-1.4,0.4-2.4,1.5-2.8,3l-9.7,0.4C41.6,48.9,47.1,43.5,54.7,43.5z M54.6,68.6
		c-7.4,0-12.7-5-13.4-11.2l9.9,0.4c0.6,1.5,2,2.5,3.5,2.5c1.6,0,2.9-1,3.5-2.5l9.9-0.4C67.3,63.6,61.9,68.6,54.6,68.6z M58.6,82.1
		c-0.7,0-1.4-0.2-2-0.6l0.1-0.6c0.6,0.5,1.3,0.7,2,0.7c1.2,0,1.8-0.7,1.8-1.6c0-0.9-0.5-1.3-1.9-1.9c-1.5-0.7-1.8-1.4-1.8-2.3
		c0-1.2,0.9-2.1,2.4-2.1c0.8,0,1.3,0.2,1.7,0.4l-0.1,0.6c-0.4-0.3-1-0.5-1.7-0.5c-0.9,0-1.7,0.6-1.7,1.6c0,1,0.3,1.4,1.7,2
		c1.4,0.6,2,1.2,2,2.3C61,81.2,60.2,82.1,58.6,82.1z M67.2,74.4c-0.4,0-1,0-1.7,0h-1v5.1c0,1,0,1.9,0,2.5H64c0-0.7,0-1.6,0-2.6v-5
		h-1c-0.7,0-1.2,0-1.6,0l0-0.5h5.8V74.4z M71.1,82.1c-2.2,0-3.7-1.7-3.7-4.1c0-2.7,1.6-4.3,3.9-4.3c2.2,0,3.7,1.6,3.7,4.1
		C75,80.5,73.5,82.1,71.1,82.1z M81.1,82c-0.6-0.9-1.9-2.9-2.4-3.7c-0.5,0-1,0-1.4,0c0,1.9,0,3,0,3.7h-0.6c0-0.9,0-1.4,0-2.9v-2.3
		c0-1.3,0-2.3,0-3c0.7,0,1.6,0,1.9,0c1.8,0,2.5,0.8,2.5,2.1c0,1.1-0.7,2-1.8,2.3c0.6,0.9,1.9,3,2.5,3.8H81.1z M83.9,82h-0.6
		c0-0.6,0-1.2,0-3.1v-2.2c0-1.7,0-2.3,0-2.8h0.6c0,0.6,0,1.2,0,2.8v2.2C83.9,80.8,83.9,81.4,83.9,82z M90.4,82h-4.1
		c0-0.6,0.1-1.5,0.1-3.1v-2.1c0-1.7,0-2.5,0-2.9h3.9l0,0.5c-0.5,0-1,0-2.1,0h-1.3v3.3h1.3c0.5,0,1.1,0,1.8,0l0,0.6
		c-0.6,0-1.1,0-1.7,0h-1.4v3.4h1.5c1,0,1.6,0,2.1,0L90.4,82z M93.3,82.1c-0.7,0-1.4-0.2-2-0.6l0.1-0.6c0.6,0.5,1.3,0.7,2,0.7
		c1.2,0,1.8-0.7,1.8-1.6c0-0.9-0.5-1.3-1.9-1.9c-1.5-0.7-1.8-1.4-1.8-2.3c0-1.2,0.9-2.1,2.4-2.1c0.8,0,1.3,0.2,1.7,0.4l-0.1,0.6
		c-0.4-0.3-1-0.5-1.7-0.5c-0.9,0-1.7,0.6-1.7,1.6c0,1,0.3,1.4,1.7,2c1.4,0.6,2,1.2,2,2.3C95.8,81.2,94.9,82.1,93.3,82.1z
		 M104.4,45.8l-6.5,21.3c0,0,0,0,0,0l-0.1,0.2c-0.2,0.5-0.7,0.9-1.3,0.9h-6.4c-0.6,0-1-0.3-1.2-0.8c0,0,0,0,0-0.1l0-0.1c0,0,0,0,0,0
		l-2.9-9.3l-3,9.3c-0.2,0.5-0.7,0.9-1.3,0.9h-6.3c-0.6,0-1.1-0.4-1.3-0.9l0-0.1l-3-9.9l12.5-0.5c0,0,0.6-0.1,0.8-0.1
		c0.2,0,0.5-0.1,0.5-0.3c0,0,0,0,0,0v0v0c0,0,0,0,0,0c0-0.2-0.4-0.3-0.5-0.3c-0.2,0-0.8-0.1-0.8-0.1l-13.1-0.6l-2.9-9.6
		c0-0.1-0.1-0.3-0.1-0.4c0-0.7,0.6-1.3,1.3-1.3h6.7c0.6,0,1.1,0.4,1.3,0.9c0,0,0,0.1,0,0.1l2.2,8.6l2.6-8.8c0.2-0.6,0.7-0.9,1.3-0.9
		h6c0.6,0,1,0.3,1.2,0.8l0.1,0.3l2.6,8.7l2.3-8.7c0,0,0-0.1,0-0.1c0.2-0.5,0.7-0.9,1.3-0.9h6.5c0.7,0,1.3,0.6,1.3,1.3
		C104.5,45.5,104.5,45.7,104.4,45.8C104.4,45.8,104.4,45.8,104.4,45.8z"/>
	<path class="st0" d="M80.6,75.9c0-1-0.5-1.6-2-1.6c-0.4,0-1.1,0-1.3,0v3.4c0.3,0,1.2,0,1.4,0C79.8,77.8,80.6,77,80.6,75.9z"/>
</g>
</svg>
