<?xml version="1.0" encoding="utf-8"?>
<!-- Generator: Adobe Illustrator 21.1.0, SVG Export Plug-In . SVG Version: 6.00 Build 0)  -->
<svg version="1.1" id="Laag_1" xmlns="http://www.w3.org/2000/svg" xmlns:xlink="http://www.w3.org/1999/xlink" x="0px" y="0px"
	 viewBox="0 0 119.8 92.3" style="enable-background:new 0 0 119.8 92.3;" xml:space="preserve">
<style type="text/css">
	.st0{fill:#771B5D;stroke:#771B5D;stroke-width:2;stroke-miterlimit:10;}
	.st1{fill:#FFFFFE;stroke:#771B5D;stroke-width:5;stroke-miterlimit:10;}
	.st2{fill:none;stroke:#771B5D;stroke-width:2;stroke-miterlimit:10;}
</style>
<title>zoeken</title>
<path class="st0" d="M53.6,37.3l0.2-0.2c0.7-0.7,1.8-0.8,2.6-0.2l23.7,21.2c0.7,0.7,0.8,1.8,0.2,2.6l-0.2,0.2
	c-0.7,0.7-1.8,0.8-2.6,0.2L53.7,39.9C52.9,39.3,52.8,38.1,53.6,37.3z"/>
<ellipse class="st1" cx="57.4" cy="40.6" rx="13.6" ry="12.8"/>
<path class="st2" d="M95.4,87.9H26.5c-7.9,0-14.3-6.4-14.3-14.3V18.7c0-7.9,6.4-14.3,14.3-14.3h68.9c7.9,0,14.3,6.4,14.3,14.3v54.9
	C109.8,81.5,103.3,87.9,95.4,87.9z"/>
</svg>
